Coordinates
version=1
nRows=22
nColumns=30
inDegrees=yes

Units are S.I. units (second, meters, Newtons, ...)
Angles are in degrees.

endheader
time	floatyaw	floatroll	floatpitch	floatx	floaty	floatz	pro_sup_l	deviation_l	flexion_l	cmc_flexion_l	cmc_abduction_l	mp_flexion_l	ip_flexion_l	2mcp_flexion_l	2mcp_abduction_l	2pm_flexion_l	2md_flexion_l	3mcp_flexion_l	3mcp_abduction_l	3pm_flexion_l	3md_flexion_l	4mcp_flexion_l	4mcp_abduction_l	4pm_flexion_l	4md_flexion_l	5mcp_flexion_l	5mcp_abduction_l	5pm_flexion_l	5md_flexion_l
0.005000	-160.147433	-5.066637	-73.570646	-0.066519	-0.138182	-0.129240	59.423853	-8.442504	-7.292356	12.330661	-7.328652	-37.598770	-59.893931	66.730590	15.344825	73.592085	74.764218	64.390079	5.816142	88.408800	64.503269	45.627495	-5.260979	87.082579	71.355430	26.241506	-13.889440	97.961276	78.064642
0.015000	-160.147433	-5.066637	-73.570646	-0.067399	-0.134465	-0.129842	57.995572	-9.647452	-7.951346	12.034087	-7.875684	-37.813515	-60.256548	68.326052	15.194116	74.092244	74.837464	66.021979	5.675661	89.071810	64.686449	47.514351	-5.152695	88.244531	72.013577	27.233073	-13.607342	99.142243	78.138191
0.025000	-160.147433	-5.066637	-73.570646	-0.068033	-0.130207	-0.130274	57.116948	-10.607837	-8.478006	11.808566	-8.521604	-37.886890	-60.473403	69.379839	15.059279	74.496828	74.914623	67.175753	5.544625	89.470685	64.621008	49.160269	-5.084929	89.045586	72.471163	28.113978	-13.355022	99.856296	78.113053
0.035000	-160.147433	-5.066637	-73.570646	-0.068434	-0.125965	-0.130503	56.636497	-11.433806	-8.756154	11.616822	-9.208454	-37.877732	-60.578736	70.045819	14.926706	74.894405	74.931317	67.939121	5.425671	89.671689	64.365321	50.423038	-5.045819	89.545120	72.746562	28.715939	-13.130072	100.090478	77.939872
0.045000	-160.147433	-5.066637	-73.570646	-0.068617	-0.122360	-0.130546	56.300977	-12.208783	-8.763772	11.427470	-9.780437	-37.863095	-60.618448	70.432372	14.787635	75.323051	74.818096	68.389638	5.320485	89.737149	64.003071	51.187976	-5.020500	89.852124	72.890090	28.885255	-12.932951	99.967499	77.623634
0.055000	-160.147433	-5.066637	-73.570646	-0.068587	-0.119856	-0.130470	55.868124	-12.945664	-8.582689	11.226467	-10.077139	-37.897295	-60.626324	70.567241	14.642965	75.759368	74.557807	68.554785	5.231057	89.726659	63.646663	51.395760	-4.997855	90.071908	72.967599	28.536611	-12.767881	99.683212	77.226428
0.065000	-160.147433	-5.066637	-73.570646	-0.068345	-0.118600	-0.130362	55.212116	-13.588741	-8.347880	11.013532	-10.028315	-37.983963	-60.607724	70.418231	14.502221	76.141305	74.202541	68.416847	5.159734	89.691508	63.415751	51.057843	-4.974053	90.268817	73.042764	27.679646	-12.638710	99.419483	76.841284
0.075000	-160.147433	-5.066637	-73.570646	-0.067901	-0.118398	-0.130291	54.362408	-14.055094	-8.167214	10.793665	-9.688411	-38.080166	-60.543252	69.951076	14.378162	76.405406	73.846806	67.955392	5.108038	89.663782	63.397627	50.256337	-4.951640	90.459018	73.162043	26.414270	-12.544455	99.280410	76.551461
0.085000	-160.147433	-5.066637	-73.570646	-0.067294	-0.118837	-0.130277	53.460576	-14.285437	-8.065313	10.573942	-9.198754	-38.127042	-60.408649	69.184769	14.280700	76.515325	73.579335	67.194650	5.075423	89.649936	63.613160	49.130743	-4.935775	90.626822	73.344498	24.904190	-12.478594	99.278451	76.397697
0.095000	-160.147433	-5.066637	-73.570646	-0.066592	-0.119476	-0.130284	52.669788	-14.273611	-7.985914	10.365497	-8.713504	-38.083874	-60.194925	68.209543	14.213579	76.470915	73.444676	66.222362	5.058995	89.636128	64.009860	47.852509	-4.930453	90.748608	73.579430	23.338008	-12.432226	99.364885	76.370180
0.105000	-160.147433	-5.066637	-73.570646	-0.065880	-0.120005	-0.130250	52.091329	-14.063157	-7.842513	10.183640	-8.336142	-37.945165	-59.915137	67.160085	14.175010	76.301217	73.433383	65.169412	5.054328	89.602843	64.485564	46.589382	-4.936637	90.811916	73.833295	21.885977	-12.398255	99.477907	76.425220
0.115000	-160.147433	-5.066637	-73.570646	-0.065233	-0.120312	-0.130115	51.726951	-13.721421	-7.576692	10.042398	-8.092726	-37.735951	-59.596566	66.166066	14.160777	76.049321	73.499075	64.166004	5.056871	89.539164	64.928922	45.468944	-4.952509	90.824062	74.063496	20.664401	-12.373686	99.579912	76.512101
0.125000	-160.147433	-5.066637	-73.570646	-0.064696	-0.120453	-0.129852	51.494468	-13.311122	-7.187739	9.947275	-7.942756	-37.494064	-59.267016	65.311455	14.167090	75.755635	73.586912	63.301200	5.063258	89.448114	65.257086	44.555246	-4.974886	90.809408	74.233349	19.719805	-12.359174	99.668422	76.593662
0.135000	-160.147433	-5.066637	-73.570646	-0.064279	-0.120561	-0.129466	51.278332	-12.873728	-6.723863	9.892620	-7.814499	-37.251915	-58.944769	64.620454	14.191347	75.445466	73.657032	62.604465	5.072037	89.341898	65.436206	43.846928	-5.000666	90.798018	74.322521	19.036015	-12.356905	99.762449	76.653136
0.145000	-160.147433	-5.066637	-73.570646	-0.063963	-0.120756	-0.128990	50.986127	-12.427171	-6.250041	9.865696	-7.647268	-37.026078	-58.635894	64.067764	14.231045	75.125905	73.694163	62.051761	5.083597	89.232558	65.480386	43.294382	-5.027635	90.811599	74.330071	18.556315	-12.368559	99.878750	76.690138
0.155000	-160.147433	-5.066637	-73.570646	-0.063710	-0.121091	-0.128464	50.585086	-11.972417	-5.815475	9.853538	-7.422108	-36.816348	-58.336663	63.600288	14.282375	74.792233	73.703686	61.586939	5.099408	89.124600	65.434235	42.825962	-5.054525	90.853569	74.270884	18.208400	-12.394322	100.014705	76.712624
0.165000	-160.147433	-5.066637	-73.570646	-0.063480	-0.121545	-0.127923	50.105613	-11.502309	-5.436352	9.847327	-7.166343	-36.611408	-58.037290	63.158391	14.339855	74.438015	73.700163	61.146112	5.120881	89.012576	65.349588	42.372190	-5.080660	90.907594	74.168458	17.922650	-12.432818	100.146871	76.729599
0.175000	-160.147433	-5.066637	-73.570646	-0.063238	-0.122054	-0.127383	49.615876	-11.008572	-5.097158	9.842355	-6.931223	-36.396923	-57.725345	62.690723	14.397365	74.061872	73.695925	60.675996	5.148356	88.883045	65.266927	41.880879	-5.105615	90.944430	74.047321	17.640594	-12.481467	100.242788	76.746443
0.185000	-160.147433	-5.066637	-73.570646	-0.062962	-0.122550	-0.126845	49.184929	-10.485460	-4.764874	9.835423	-6.758473	-36.162556	-57.389257	62.161657	14.449858	73.668210	73.695388	60.142592	5.180715	88.719250	65.207427	41.321799	-5.129161	90.933236	73.927301	17.316646	-12.536963	100.276203	76.763403
0.195000	-160.147433	-5.066637	-73.570646	-0.062639	-0.122991	-0.126297	48.854216	-9.930553	-4.407140	9.822458	-6.657008	-35.905604	-57.021839	61.553073	14.494687	73.264129	73.696102	59.531377	5.215761	88.507005	65.175139	40.684102	-5.151413	90.852355	73.820166	16.918860	-12.595850	100.236154	76.776791
0.205000	-160.147433	-5.066637	-73.570646	-0.062267	-0.123373	-0.125723	48.628574	-9.344618	-4.006452	9.798144	-6.601609	-35.630371	-56.622420	60.862933	14.531727	72.856196	73.693065	58.842887	5.251088	88.240177	65.164202	39.971456	-5.172919	90.695850	73.728033	16.432166	-12.655222	100.126319	76.781044
0.215000	-160.147433	-5.066637	-73.570646	-0.061853	-0.123717	-0.125120	48.485567	-8.732148	-3.565630	9.757940	-6.550777	-35.344267	-56.196268	60.102654	14.562316	72.449105	73.681926	58.087767	5.284880	87.923843	65.165556	39.198250	-5.194403	90.474287	73.643511	15.862654	-12.713366	99.957852	76.770003
